<svg width="96" height="96" viewBox="0 0 96 96" fill="none" xmlns="http://www.w3.org/2000/svg" role="img" aria-labelledby="title desc">
  <title id="title">Marca provisoria UFCG</title>
  <desc id="desc">Marca institucional provisoria preparada para substituicao pelo brasao oficial.</desc>
  <rect width="96" height="96" rx="14" fill="#001B4D"/>
  <path d="M48 14L76 24V46C76 62 65 76 48 84C31 76 20 62 20 46V24L48 14Z" fill="#002D72" stroke="#00AFEB" stroke-width="4"/>
  <path d="M34 34V50C34 58 39 63 48 63C57 63 62 58 62 50V34H55V50C55 54 52 57 48 57C44 57 41 54 41 50V34H34Z" fill="#FFFFFF"/>
  <path d="M32 70H64" stroke="#00AFEB" stroke-width="4" stroke-linecap="round"/>
</svg>
